<?xml version="1.0" encoding="UTF-8" standalone="no"?>
<!-- Created with Inkscape (http://www.inkscape.org/) -->

<svg
   version="1.1"
   id="svg824"
   width="153.60001"
   height="153.60001"
   viewBox="0 0 153.60001 153.60001"
   sodipodi:docname="logo.svg"
   inkscape:version="1.1 (c68e22c387, 2021-05-23)"
   xmlns:inkscape="http://www.inkscape.org/namespaces/inkscape"
   xmlns:sodipodi="http://sodipodi.sourceforge.net/DTD/sodipodi-0.dtd"
   xmlns="http://www.w3.org/2000/svg"
   xmlns:svg="http://www.w3.org/2000/svg">
  <defs
     id="defs828" />
  <sodipodi:namedview
     id="namedview826"
     pagecolor="#ffffff"
     bordercolor="#666666"
     borderopacity="1.0"
     inkscape:pageshadow="2"
     inkscape:pageopacity="0.0"
     inkscape:pagecheckerboard="0"
     showgrid="false"
     inkscape:zoom="5.0325519"
     inkscape:cx="49.577234"
     inkscape:cy="81.767662"
     inkscape:window-width="1920"
     inkscape:window-height="991"
     inkscape:window-x="-9"
     inkscape:window-y="-9"
     inkscape:window-maximized="1"
     inkscape:current-layer="g830" />
  <g
     inkscape:groupmode="layer"
     inkscape:label="Image"
     id="g830"
     style="display:inline">
    <path
       style="fill:#ffffff;stroke:#ffffff;stroke-width:0.5px;stroke-linecap:butt;stroke-linejoin:miter;stroke-opacity:1"
       d="M 100.48119,21.859586 C 83.58842,18.689924 78.122142,20.353367 71.256987,24.036773 63.740092,28.069862 53.026516,32.209188 41.067988,26.628542 v 0 c 13.497187,2.573095 18.274128,0.09018 29.39472,-4.814546 13.819188,-6.094934 19.808954,-3.711368 30.018482,0.04559 z"
       id="path1723"
       sodipodi:nodetypes="csccscc" />
    <path
       style="fill:#ffffff;fill-opacity:1;stroke:#ffffff;stroke-width:0.377953;stroke-linecap:butt;stroke-linejoin:miter;stroke-miterlimit:4;stroke-dasharray:none;stroke-opacity:1"
       d="M 77.735728,34.727161 C 88.45381,25.568179 111.89478,26.855631 124.78759,39.741269 107.21347,28.597779 88.713346,31.31134 75.935957,40.441573 61.72082,50.599165 43.482246,52.66076 27.719535,39.939976 c 9.247806,6.908655 33.943937,8.521499 50.016193,-5.212815 z"
       id="path39403"
       sodipodi:nodetypes="scscs" />
    <path
       style="fill:#ffffff;fill-opacity:1;stroke:#ffffff;stroke-width:0.4;stroke-linecap:butt;stroke-linejoin:miter;stroke-miterlimit:4;stroke-dasharray:none;stroke-opacity:1"
       d="M 76.804665,52.633897 C 59.248162,66.343876 39.648968,68.301376 18.082278,58.618372 40.987746,75.203228 60.795178,69.226922 75.52669,59.256011 89.900826,49.526986 111.24152,43.227016 134.7229,57.823547 112.2226,36.685368 87.476623,44.300101 76.804665,52.633897 Z"
       id="path56147"
       sodipodi:nodetypes="scscs" />
    <path
       style="fill:none;stroke:#000000;stroke-width:1px;stroke-linecap:butt;stroke-linejoin:miter;stroke-opacity:1"
       d="M 18.082278,58.618372 Z"
       id="path56429" />
    <path
       style="fill:#ffffff;fill-opacity:1;stroke:#ffffff;stroke-width:0.4;stroke-linecap:butt;stroke-linejoin:miter;stroke-miterlimit:4;stroke-dasharray:none;stroke-opacity:1"
       d="M 137.80286,76.402591 C 116.91126,58.133028 89.300367,60.113936 76.940438,70.776147 59.900835,85.475248 35.465504,88.139537 15.300389,76.800003 c 31.340857,19.845594 50.568054,6.79435 62.66274,-1.128212 10.820984,-7.088231 31.020031,-15.517085 59.839731,0.7308 z"
       id="path61162"
       sodipodi:nodetypes="cscsc" />
    <path
       style="fill:#ffffff;stroke:#ffffff;stroke-width:0.5;stroke-linecap:butt;stroke-linejoin:miter;stroke-miterlimit:4;stroke-dasharray:none;stroke-opacity:1;fill-opacity:1"
       d="M 77.715897,88.794689 C 88.582338,80.951927 112.54198,74.151308 134.7229,94.981634 114.6657,81.874078 91.755468,84.817502 80.968574,92.555019 62.470377,105.82391 45.791744,112.11834 18.827427,95.726783 c 24.407912,9.233057 40.461895,6.367127 58.88847,-6.932094 z"
       id="path65848"
       sodipodi:nodetypes="scscs" />
    <path
       style="fill:#ffffff;stroke:#ffffff;stroke-width:0.5;stroke-linecap:butt;stroke-linejoin:miter;stroke-miterlimit:4;stroke-dasharray:none;stroke-opacity:1;fill-opacity:1"
       d="m 75.371533,109.41087 c -14.730439,11.38578 -31.934207,11.60825 -47.651998,4.14981 12.492873,12.49287 33.843085,11.30612 49.198836,-0.23046 10.495185,-7.8849 27.476079,-11.15977 48.067919,-0.36566 -18.83127,-16.070664 -38.359317,-12.2535 -49.614757,-3.55369 z"
       id="path69012"
       sodipodi:nodetypes="scscs" />
    <path
       style="fill:#ffffff;stroke:#ffffff;stroke-width:0.5;stroke-linecap:butt;stroke-linejoin:miter;stroke-miterlimit:4;stroke-dasharray:none;stroke-opacity:1;fill-opacity:1"
       d="m 51.067531,131.94101 c 5.409368,1.85947 18.918825,1.0773 28.042151,-4.67039 8.187329,-5.15801 19.554872,-5.35858 31.768458,-0.19791 -11.609872,-2.96697 -23.972352,-1.43847 -31.854772,3.96019 -5.181305,3.54867 -20.911631,5.69817 -27.955837,0.90811 z"
       id="path72183"
       sodipodi:nodetypes="cscsc" />
  </g>
</svg>
